<svg width="145" height="80" viewBox="0 0 145 80" fill="none" xmlns="http://www.w3.org/2000/svg">
<path d="M111.514 0C101.673 0 92.8362 4.28501 86.7564 11.0884L82.4733 0H33.1994C14.8641 0 0 14.8641 0 33.1994C0 51.5348 14.8641 66.3988 33.1994 66.3988C43.0794 66.3988 51.9463 62.0781 58.0262 55.2296L62.3337 66.3988H62.3319L67.5754 80H97.9181L92.6333 66.3988H111.938V66.3876C130.076 66.1583 144.713 51.3919 144.713 33.1994C144.713 15.0069 129.849 0 111.514 0Z" fill="#95FE3F"/>
<path d="M24.6113 33.8965H18.0391V28.3711H38.6992V33.8965H32.127V41.7674H24.6113V33.8965Z" fill="black"/>
<path d="M40.793 28.3711H59.6113V32.5584H48.2447V33.4586H59.1715V36.5352H48.2447V37.582H59.6113V41.7693H40.793V28.373V28.3711Z" fill="black"/>
<path d="M61.0761 28.3711H69.9299L72.4201 35.1952H72.8599L75.3501 28.3711H84.2039L77.9248 41.7674H67.3533L61.0742 28.3711H61.0761Z" fill="black"/>
<path d="M87.3664 28.3711H99.6539L105.745 41.7674H97.6016L96.7427 39.9463H90.2757L89.4168 41.7674H81.2734L87.3645 28.3711H87.3664ZM95.0494 36.366L93.6887 33.5187H93.3335L91.9728 36.366H95.0494Z" fill="black"/>
<path d="M105.953 35.697V28.3711H113.907V35.9074H118.701V28.3711H126.655V35.697C126.655 40.2188 123.64 42.0812 116.335 42.0812C109.03 42.0812 105.953 40.3447 105.953 35.697Z" fill="black"/>
</svg>
