<svg width="16" height="16" viewBox="0 0 16 16" xmlns="http://www.w3.org/2000/svg">
<g id="Frame">
<path id="Vector" d="M14.2388 14.1194H1.791C1.46264 14.1194 1.19397 13.8507 1.19397 13.5223V11.6119C1.19397 11.4328 1.28353 11.2537 1.40294 11.1642L5.46263 7.76119C5.67159 7.58208 5.97011 7.58208 6.17906 7.73133L8.98503 9.70149L13.8507 6.1791C14.0298 6.05969 14.2686 6.02983 14.4776 6.1194C14.6865 6.20894 14.8059 6.4179 14.8059 6.65671V13.5522C14.8358 13.8507 14.5671 14.1194 14.2388 14.1194ZM2.38802 12.9253H13.6418V7.79102L9.37308 10.8656C9.16411 11.0149 8.89545 11.0149 8.68652 10.8656L5.88053 8.92533L2.388 11.8806L2.38802 12.9253Z" />
<path id="Vector_2" d="M1.88059 8.32833C1.76118 8.32833 1.61193 8.26863 1.55223 8.17908C1.40298 7.99997 1.43282 7.70147 1.61193 7.55221L5.73134 4.08952C5.88059 3.97013 6.1194 3.94027 6.29849 4.05967L9.04478 6.08952L13.3433 2.74624C13.5522 2.59699 13.8209 2.62683 13.9702 2.8358C14.1194 3.04477 14.0895 3.31341 13.8806 3.46266L9.28359 7.01489C9.13434 7.1343 8.89553 7.1343 8.74628 7.01489L6.02987 4.98505L2.14926 8.23878C2.08957 8.29847 1.97017 8.32831 1.8806 8.32831L1.88059 8.32833Z" />
<path id="Vector_3" d="M13.5822 4.98508H13.4926C13.2538 4.92537 13.1045 4.68656 13.1344 4.44776L13.3732 3.28358L12.2389 3.46269C12.0001 3.49253 11.7612 3.31344 11.7314 3.07462C11.7016 2.83583 11.8807 2.59701 12.1195 2.56717L13.9105 2.2985C14.0598 2.26865 14.209 2.32834 14.2986 2.44776C14.3881 2.56719 14.4478 2.68656 14.418 2.83583L14.0299 4.62686C14.0001 4.83583 13.7911 4.98508 13.5822 4.98508Z" />
</g>
</svg>
