<svg width="16" height="16" viewBox="0 0 16 16" xmlns="http://www.w3.org/2000/svg">
<g id="Frame">
<path id="Vector" d="M8.00334 14.6687C4.32134 14.6687 1.33667 11.684 1.33667 8.00199C1.33667 4.31999 4.32134 1.33533 8.00334 1.33533C11.6853 1.33533 14.67 4.31999 14.67 8.00199C14.67 11.684 11.6853 14.6687 8.00334 14.6687ZM8.00334 13.3353C8.70372 13.3353 9.39724 13.1974 10.0443 12.9294C10.6914 12.6613 11.2793 12.2685 11.7746 11.7732C12.2698 11.278 12.6627 10.69 12.9307 10.043C13.1987 9.3959 13.3367 8.70238 13.3367 8.00199C13.3367 7.30161 13.1987 6.60809 12.9307 5.96102C12.6627 5.31395 12.2698 4.726 11.7746 4.23076C11.2793 3.73551 10.6914 3.34266 10.0443 3.07464C9.39724 2.80661 8.70372 2.66866 8.00334 2.66866C6.58885 2.66866 5.23229 3.23056 4.2321 4.23076C3.23191 5.23095 2.67 6.58751 2.67 8.00199C2.67 9.41648 3.23191 10.773 4.2321 11.7732C5.23229 12.7734 6.58885 13.3353 8.00334 13.3353ZM8.00334 4.70199L11.3033 8.00199L8.00334 11.302L4.70334 8.00199L8.00334 4.70199ZM8.00334 6.58733L6.58934 8.00199L8.00267 9.41599L9.41734 8.00199L8.00334 6.58733Z" />
</g>
</svg>
