<svg width="16" height="16" viewBox="0 0 16 16" xmlns="http://www.w3.org/2000/svg">
<g id="Frame">
<path id="Vector" d="M10.1372 13.1795C9.83412 13.1839 9.54112 13.0705 9.31987 12.8633C9.21393 12.7619 9.12989 12.6398 9.07292 12.5047C9.01595 12.3696 8.98727 12.2242 8.98864 12.0775V10.9788H9.898V12.0775C9.89575 12.1091 9.90047 12.1408 9.91183 12.1704C9.92319 12.1999 9.94091 12.2266 9.96374 12.2486C9.98657 12.2705 10.0139 12.2872 10.0439 12.2974C10.0739 12.3076 10.1058 12.311 10.1372 12.3075H13.3071C13.3674 12.3026 13.4241 12.277 13.4678 12.2352C13.5114 12.1933 13.5393 12.1376 13.5466 12.0775V3.10209C13.5489 3.07048 13.5442 3.03875 13.5328 3.00917C13.5214 2.97958 13.5037 2.95287 13.4808 2.93092C13.4579 2.90897 13.4305 2.89232 13.4005 2.88216C13.3705 2.87199 13.3386 2.86857 13.3071 2.87212H10.1363C10.076 2.8771 10.0194 2.90269 9.97579 2.94458C9.93221 2.98647 9.9044 3.0421 9.89704 3.10209V4.236H8.98736V3.10209C8.98599 2.95544 9.01467 2.81007 9.07164 2.67493C9.12861 2.53979 9.21265 2.41775 9.31859 2.31634C9.53984 2.10911 9.83284 1.99575 10.136 2.00012H13.3071C13.6103 1.9957 13.9034 2.10906 14.1248 2.31634C14.2308 2.41774 14.3148 2.53977 14.3719 2.6749C14.4289 2.81004 14.4576 2.95542 14.4563 3.10209V12.0775C14.4576 12.2242 14.4289 12.3696 14.3719 12.5047C14.3148 12.6399 14.2308 12.7619 14.1248 12.8633C13.9035 13.0705 13.6105 13.1839 13.3074 13.1795H10.1366H10.1372ZM3.14884 13.1795C2.84572 13.1839 2.55272 13.0705 2.33147 12.8633C2.22549 12.7619 2.1414 12.6399 2.08437 12.5047C2.02735 12.3696 1.99861 12.2242 1.99992 12.0775V3.10209C1.99861 2.95542 2.02735 2.81004 2.08437 2.6749C2.1414 2.53977 2.22549 2.41774 2.33147 2.31634C2.55272 2.10911 2.84572 1.99575 3.14884 2.00012H6.31964C6.62276 1.99575 6.91576 2.10911 7.13701 2.31634C7.24295 2.41775 7.32699 2.53979 7.38396 2.67493C7.44093 2.81007 7.46961 2.95544 7.46824 3.10209V4.20087H6.55888V3.10209C6.55834 3.07126 6.55171 3.04084 6.53939 3.01258C6.52706 2.98432 6.50927 2.95877 6.48704 2.9374C6.46481 2.91603 6.43858 2.89926 6.40985 2.88806C6.38112 2.87686 6.35047 2.87144 6.31964 2.87212H3.1498C3.08768 2.87134 3.02774 2.89502 2.98292 2.93804C2.9381 2.98107 2.912 3.03999 2.91024 3.10209V12.0775C2.90798 12.1092 2.91271 12.1409 2.92408 12.1705C2.93546 12.2001 2.95322 12.2268 2.97608 12.2487C2.99895 12.2707 3.02636 12.2873 3.05639 12.2975C3.08641 12.3076 3.1183 12.3111 3.1498 12.3075H6.3206C6.38266 12.3082 6.44252 12.2845 6.48727 12.2415C6.53202 12.1985 6.55808 12.1396 6.55983 12.0775V10.9788H7.4692V12.0775C7.47057 12.2242 7.44189 12.3696 7.38492 12.5047C7.32795 12.6398 7.24391 12.7619 7.13797 12.8633C6.91672 13.0705 6.62371 13.1839 6.3206 13.1795H3.1498H3.14884ZM8.05723 9.19007C7.93772 9.18995 7.82302 9.14293 7.73782 9.05911C7.69469 9.02018 7.66021 8.97263 7.63661 8.91953C7.61302 8.86644 7.60082 8.80898 7.60082 8.75088C7.60082 8.69278 7.61302 8.63532 7.63661 8.58223C7.66021 8.52913 7.69469 8.48158 7.73782 8.44265L8.34758 7.86132H5.81241C5.73386 8.08843 5.59046 8.28754 5.39994 8.43401C5.20942 8.58047 4.98014 8.66787 4.74047 8.6854V8.6886H4.63506C4.47501 8.69502 4.31531 8.66905 4.16554 8.61224C4.01577 8.55542 3.87903 8.46893 3.76351 8.35796C3.648 8.24699 3.55609 8.11383 3.49331 7.96646C3.43053 7.8191 3.39817 7.66057 3.39817 7.50039C3.39817 7.3402 3.43053 7.18167 3.49331 7.03431C3.55609 6.88694 3.648 6.75378 3.76351 6.64281C3.87903 6.53184 4.01577 6.44535 4.16554 6.38854C4.31531 6.33172 4.47501 6.30575 4.63506 6.31218C4.86558 6.30974 5.09224 6.37149 5.28967 6.49052C5.4871 6.60954 5.64753 6.78114 5.753 6.98613H8.35109L7.7407 6.40481C7.69757 6.36587 7.66309 6.31832 7.63949 6.26523C7.61589 6.21213 7.6037 6.15468 7.6037 6.09657C7.6037 6.03847 7.61589 5.98101 7.63949 5.92792C7.66309 5.87483 7.69757 5.82727 7.7407 5.78834C7.78274 5.74641 7.83267 5.7132 7.8876 5.69065C7.94254 5.6681 8.00139 5.65664 8.06077 5.65694C8.12016 5.65723 8.17889 5.66928 8.2336 5.69238C8.28831 5.71548 8.3379 5.74918 8.37952 5.79154L10.0868 7.42373L8.37792 9.05911C8.33573 9.10098 8.28568 9.13411 8.23064 9.15658C8.17561 9.17906 8.11668 9.19044 8.05723 9.19007ZM4.63474 6.96058C4.56115 6.95619 4.48744 6.9669 4.41813 6.99205C4.34883 7.01719 4.2854 7.05624 4.23174 7.1068C4.17808 7.15735 4.13532 7.21835 4.1061 7.28603C4.07688 7.35372 4.0618 7.42666 4.0618 7.50039C4.0618 7.57411 4.07688 7.64706 4.1061 7.71474C4.13532 7.78242 4.17808 7.84342 4.23174 7.89398C4.2854 7.94453 4.34883 7.98358 4.41813 8.00873C4.48744 8.03387 4.56115 8.04458 4.63474 8.04019C4.75055 8.04205 4.86415 8.00847 4.96034 7.94397C5.05653 7.87946 5.13071 7.7871 5.17295 7.67926V7.31832C5.12998 7.21123 5.05552 7.11971 4.95943 7.05583C4.86333 6.99196 4.75012 6.95874 4.63474 6.96058ZM11.8534 8.4682C11.6634 8.46012 11.4799 8.39636 11.3258 8.28483C11.1716 8.1733 11.0537 8.01893 10.9866 7.84091C10.9195 7.6629 10.9062 7.46909 10.9484 7.28358C10.9906 7.09808 11.0864 6.92906 11.2238 6.79755C11.3613 6.66604 11.5344 6.57783 11.7215 6.5439C11.9087 6.50996 12.1018 6.5318 12.2766 6.60669C12.4515 6.68158 12.6005 6.80622 12.7051 6.96512C12.8097 7.12401 12.8653 7.31015 12.865 7.50039C12.8591 7.76279 12.7493 8.01213 12.5597 8.19361C12.3701 8.37509 12.1162 8.47385 11.8538 8.4682H11.8534Z" />
</g>
</svg>
