<svg width="16" height="16" viewBox="0 0 16 16" xmlns="http://www.w3.org/2000/svg">
<g id="Frame">
<path id="Vector" d="M10.2014 14.176H5.79873C5.38412 14.175 4.977 14.0654 4.61791 13.8582C4.25883 13.6509 3.9603 13.3532 3.75206 12.9946L1.55073 9.1813C1.34441 8.82178 1.23584 8.41449 1.23584 7.99997C1.23584 7.58546 1.34441 7.17817 1.55073 6.81865L3.75206 3.00665C3.95993 2.64769 4.25833 2.34956 4.61748 2.14202C4.97663 1.93449 5.38394 1.82482 5.79873 1.82397H10.2014C11.0427 1.82397 11.8267 2.27597 12.2467 3.0053L14.4467 6.81865C14.6538 7.17815 14.7628 7.58576 14.7628 8.00065C14.7628 8.41553 14.6538 8.82314 14.4467 9.18265L12.2467 12.9946C12.0392 13.3535 11.741 13.6516 11.3821 13.8589C11.0231 14.0662 10.6159 14.1756 10.2014 14.176ZM5.79873 3.1573C5.6182 3.15757 5.44091 3.20525 5.2846 3.29558C5.12829 3.3859 4.99844 3.5157 4.90806 3.67197L2.70541 7.4853C2.61506 7.64178 2.5675 7.81929 2.5675 7.99997C2.5675 8.18066 2.61506 8.35817 2.70541 8.51465L4.90673 12.328C4.99722 12.4842 5.12708 12.6139 5.28337 12.7042C5.43965 12.7945 5.61689 12.8422 5.79739 12.8426H10.2001C10.3808 12.8423 10.5582 12.7947 10.7147 12.7043C10.8713 12.614 11.0014 12.4843 11.0921 12.328L13.2921 8.51465C13.3824 8.35817 13.43 8.18066 13.43 7.99997C13.43 7.81929 13.3824 7.64178 13.2921 7.4853L11.0921 3.67197C11.0018 3.51561 10.872 3.38574 10.7156 3.2954C10.5593 3.20506 10.3819 3.15744 10.2014 3.1573H5.79873Z" />
<path id="Vector_2" d="M8.00007 10.7667C7.26652 10.766 6.56321 10.4743 6.04451 9.95556C5.52581 9.43687 5.2341 8.73356 5.2334 8.00001C5.2334 6.47468 6.47474 5.23334 8.00007 5.23334C9.52674 5.23334 10.7667 6.47468 10.7667 8.00001C10.7667 9.52668 9.52674 10.7667 8.00007 10.7667ZM8.00007 6.56668C7.63067 6.58268 7.2817 6.74068 7.02597 7.00773C6.77023 7.27478 6.62748 7.63026 6.62748 8.00001C6.62748 8.36976 6.77023 8.72523 7.02597 8.99228C7.2817 9.25933 7.63067 9.41734 8.00007 9.43334C8.36947 9.41734 8.71844 9.25933 8.97417 8.99228C9.22991 8.72523 9.37266 8.36976 9.37266 8.00001C9.37266 7.63026 9.22991 7.27478 8.97417 7.00773C8.71844 6.74068 8.36947 6.58268 8.00007 6.56668Z" />
</g>
</svg>
