<svg width="16" height="16" viewBox="0 0 16 16" xmlns="http://www.w3.org/2000/svg">
<g id="Frame">
<path id="Vector" d="M13.5534 9.32558C13.5033 9.27543 13.4531 9.27543 13.4029 9.22528V9.07481C13.4029 7.52003 12.8513 6.06557 11.798 4.96218C11.4469 4.56094 10.9956 4.20986 10.5442 3.95909V3.75848C10.5442 2.2037 9.34047 1 7.93615 1C6.53183 1 5.32814 2.30401 5.32814 3.80863V4.00925C4.87675 4.26002 4.42536 4.6111 4.07428 5.01233C3.02105 6.11572 2.46935 7.57019 2.46935 9.12497V9.27543C2.4192 9.32558 2.36904 9.32558 2.31889 9.37574C1.06504 10.128 0.613649 11.8333 1.36596 13.1874C2.06812 14.4915 3.7232 14.993 4.97706 14.1905C5.02721 14.1404 5.07737 14.1404 5.12752 14.0902C5.98014 14.6419 6.93307 14.9428 7.9863 14.9428C8.98939 14.9428 9.99247 14.6419 10.8451 14.0902C10.8952 14.1404 10.9454 14.1404 10.9956 14.1905C12.2494 14.9428 13.8543 14.4915 14.6066 13.1874C15.2587 11.7831 14.8073 10.0779 13.5534 9.32558ZM6.28106 3.55786C6.38137 2.70524 7.08353 2.05324 7.93615 2.05324C8.78877 2.05324 9.49093 2.70524 9.59124 3.55786V3.80863C9.59124 4.10956 9.54108 4.36033 9.39062 4.6111C9.08969 5.21295 8.538 5.61418 7.886 5.61418C7.23399 5.61418 6.6823 5.21295 6.38137 4.6111C6.28106 4.36033 6.18076 4.10956 6.18076 3.80863C6.28106 3.70832 6.28106 3.65817 6.28106 3.55786ZM2.16843 12.6358C1.76719 11.8834 1.91766 10.8804 2.56966 10.3287C2.61981 10.2785 2.66997 10.2284 2.77028 10.1782C3.02105 10.0277 3.27182 9.97759 3.52259 9.92743C4.12444 9.87728 4.72629 10.2284 5.07737 10.8302C5.42844 11.4321 5.37829 12.1342 5.02721 12.6859C4.87675 12.8865 4.67613 13.0871 4.47552 13.2376C4.42536 13.2878 4.32505 13.3379 4.2749 13.3379C3.47243 13.689 2.56966 13.3881 2.16843 12.6358ZM7.93615 13.8395C7.18384 13.8395 6.43153 13.6388 5.82968 13.2878C6.38137 12.4351 6.43153 11.3317 5.92999 10.429L5.87983 10.3788C5.37829 9.42589 4.37521 8.92435 3.42228 8.9745C3.47243 7.31942 4.32505 5.86495 5.57891 5.06248C5.98014 5.96526 6.88291 6.56711 7.886 6.61726H7.93615C8.98939 6.61726 9.84201 5.96526 10.2934 5.06248C11.5472 5.86495 12.3999 7.31942 12.45 8.9745C11.4971 8.92435 10.5442 9.37574 10.0426 10.2785L9.99247 10.3287C9.49093 11.2816 9.54108 12.4351 10.0928 13.2878C9.44077 13.6388 8.68846 13.8395 7.93615 13.8395ZM13.7039 12.6358C13.3026 13.3881 12.3999 13.7391 11.5974 13.3881C11.5472 13.3379 11.4469 13.3379 11.3968 13.2878C11.146 13.1373 10.9956 12.9367 10.8451 12.7361C10.494 12.1844 10.4439 11.4822 10.7949 10.8804C11.146 10.2785 11.7479 9.97759 12.3497 9.97759C12.6005 9.97759 12.8513 10.0779 13.102 10.2284C13.1522 10.2785 13.2525 10.3287 13.3026 10.3788C13.9546 10.8804 14.1051 11.8333 13.7039 12.6358Z" />
</g>
</svg>
